<!DOCTYPE svg PUBLIC "-//W3C//DTD SVG 1.1//EN" "http://www.w3.org/Graphics/SVG/1.1/DTD/svg11.dtd">
<!-- Uploaded to: SVG Repo, www.svgrepo.com, Transformed by: SVG Repo Mixer Tools -->
<svg xmlns="http://www.w3.org/2000/svg" aria-label="Orcid" role="img" viewBox="0 0 512 512" width="64px" height="64px" fill="#000000">
<g id="SVGRepo_bgCarrier" stroke-width="0"/>
<g id="SVGRepo_tracerCarrier" stroke-linecap="round" stroke-linejoin="round"/>
<g id="SVGRepo_iconCarrier">
<rect width="512" height="512" rx="15%" fill="#354F52"/>
<circle cx="256" cy="256" r="256" fill="#c0b5b9"/>
<path d="m173 372h-31v-214h31zm45-214h83c79 0 114 57 114 107 0 55-43 107-114 107h-84zm31 187h49c70 0 86-53 86-79 0-43-27-79-87-79h-47zm-71-231c0 11-9 20-20 20s-20-9-20-20a20 20 0 0 1 20-20c11 0 20 9 20 20z" fill="#354F52"/>
</g>
</svg>